# xmcd
#
# Track frame offsets:
# 150
# 9726
# 24347
# 42616
# 57695
# 71647
# 84846
# 105981
# 119426
# 137826
# 168662
#
# Disc length: 2472 seconds
#
#
# Revision: 2
# Processed by: cddbd v1.4PL0 Copyright (c) Steve Scherf et al.
# Submitted via: FreeRIP 2.40 
#
DISCID=9609a60b
DTITLE=Divokej Bill - mezi nima
DYEAR=1900
DGENRE=
TTITLE0=Bagdad
TTITLE1=Pocit
TTITLE2=Znameni
TTITLE3=Malovani
TTITLE4=Kvuli holkam
TTITLE5=Vokna
TTITLE6=Armada
TTITLE7=Mrazik
TTITLE8=Kolem Tebe
TTITLE9=Kotle
TTITLE10=Na Tvy louce zeleny
EXTD=
EXTT0=
EXTT1=
EXTT2=
EXTT3=
EXTT4=
EXTT5=
EXTT6=
EXTT7=
EXTT8=
EXTT9=
EXTT10=
PLAYORDER=
